<?xml version="1.0" ?><!DOCTYPE svg  PUBLIC '-//W3C//DTD SVG 1.1//EN'  'http://www.w3.org/Graphics/SVG/1.1/DTD/svg11.dtd'><svg enable-background="new 0 0 32 32"  id="Слой_1" version="1.1" viewBox="0 0 32 32"  xml:space="preserve" xmlns="http://www.w3.org/2000/svg" xmlns:xlink="http://www.w3.org/1999/xlink"><path clip-rule="evenodd" d="M0.295,16.706L0.295,16.706L0.295,16.706  l9.97,9.991c0.634,0.66,1.748,0.162,1.723-0.734v-4.976c0.004,0,0.008,0.002,0.012,0.002h19c0.55,0,1-0.45,1-1v-8c0-0.55-0.45-1-1-1  H12c-0.004,0-0.008,0.002-0.012,0.002V6.02c0.024-0.892-1.082-1.376-1.715-0.742l-9.977,9.999  C-0.098,15.672-0.098,16.312,0.295,16.706z M9.983,8.426v4.564H10h1h0.988v-0.002c0.004,0,0.008,0.002,0.012,0.002h1h17v6H13h-1  c-0.004,0-0.008,0.002-0.012,0.002V18.99H11h-1H9.983v4.568l-7.55-7.566L9.983,8.426z" fill="#121313" fill-rule="evenodd" id="Arrow_Left"/><g/><g/><g/><g/><g/><g/></svg>